# Blender 4.5.3 LTS
# www.blender.org
mtllib Wall.mtl
o Cube.001
v 1.097200 1.139617 0.071722
v 1.097200 1.139617 0.253850
v -0.683323 1.139617 0.253850
v -0.683322 1.139617 0.071722
v 1.097200 0.023930 0.071722
v 1.097199 0.023930 0.253850
v -0.683323 0.023930 0.253850
v -0.683323 0.023930 0.071722
v 1.097200 1.092182 0.071722
v 1.097200 1.092182 0.253850
v -0.683323 1.092182 0.253850
v -0.683322 1.092182 0.071722
v 1.097200 0.069530 0.071722
v 1.097199 0.069530 0.253850
v -0.683323 0.069530 0.253850
v -0.683323 0.069530 0.071722
vn -0.0000 1.0000 -0.0000
vn -0.0000 -1.0000 -0.0000
vn 1.0000 -0.0000 -0.0000
vn -0.0000 -0.0000 1.0000
vn -1.0000 -0.0000 -0.0000
vn -0.0000 -0.0000 -1.0000
vt 0.000000 0.000000
vt 4.096554 5.215211
vt 12.188457 -4.361217
vt 4.096554 -4.361219
vt -5.267754 -4.361217
vt -6.540158 5.215213
vt -5.267754 5.215214
vt 2.824148 -4.361219
vt 2.824150 5.215213
vt 12.188456 5.215213
vt -6.540158 -4.361217
s 0
g Cube.001_Material
usemtl Material
f 2/1/1 1/1/1 4/1/1
f 8/1/2 5/1/2 6/1/2
f 5/1/3 13/1/3 14/1/3
f 6/1/4 14/1/4 15/1/4
f 7/1/5 15/1/5 16/1/5
f 1/1/6 9/1/6 12/1/6
f 11/1/5 3/1/5 4/1/5
f 10/1/4 2/1/4 3/1/4
f 9/1/3 1/1/3 2/1/3
f 13/1/6 5/1/6 8/1/6
f 2/1/1 4/1/1 3/1/1
f 8/1/2 6/1/2 7/1/2
f 5/1/3 14/1/3 6/1/3
f 6/1/4 15/1/4 7/1/4
f 7/1/5 16/1/5 8/1/5
f 1/1/6 12/1/6 4/1/6
f 11/1/5 4/1/5 12/1/5
f 10/1/4 3/1/4 11/1/4
f 9/1/3 2/1/3 10/1/3
f 13/1/6 8/1/6 16/1/6
g Cube.001_Material.002
usemtl Material.002
f 9/2/6 13/4/6 16/3/6
f 15/5/5 11/7/5 12/6/5
f 14/8/4 10/9/4 11/7/4
f 13/4/3 9/2/3 10/9/3
f 9/2/6 16/3/6 12/10/6
f 15/5/5 12/6/5 16/11/5
f 14/8/4 11/7/4 15/5/4
f 13/4/3 10/9/3 14/8/3
